HIERARCHY
ROOT SimulationBone
{
	OFFSET 0.000000 0.000000 0.000000
	CHANNELS 6 Xposition Yposition Zposition Zrotation Yrotation Xrotation 
	JOINT Hips
	{
		OFFSET 0.000000 0.000000 0.000000
		CHANNELS 6 Xposition Yposition Zposition Zrotation Yrotation Xrotation 
		JOINT LeftUpLeg
		{
			OFFSET 0.103458 1.857831 10.548505
			CHANNELS 3 Zrotation Yrotation Xrotation
			JOINT LeftLeg
			{
				OFFSET 43.500000 -0.000031 0.000002
				CHANNELS 3 Zrotation Yrotation Xrotation
				JOINT LeftFoot
				{
					OFFSET 42.372200 0.000023 0.000003
					CHANNELS 3 Zrotation Yrotation Xrotation
					JOINT LeftToe
					{
						OFFSET 17.299997 -0.000001 -0.000010
						CHANNELS 3 Zrotation Yrotation Xrotation
						End Site
						{
							OFFSET 0.000000 0.000000 0.000000
						}
					}
				}
			}
		}
		JOINT RightUpLeg
		{
			OFFSET 0.103457 1.857828 -10.548510
			CHANNELS 3 Zrotation Yrotation Xrotation
			JOINT RightLeg
			{
				OFFSET 43.500046 -0.000015 0.000002
				CHANNELS 3 Zrotation Yrotation Xrotation
				JOINT RightFoot
				{
					OFFSET 42.372261 -0.000008 0.000023
					CHANNELS 3 Zrotation Yrotation Xrotation
					JOINT RightToe
					{
						OFFSET 17.299990 -0.000007 -0.000002
						CHANNELS 3 Zrotation Yrotation Xrotation
						End Site
						{
							OFFSET 0.000000 0.000000 0.000000
						}
					}
				}
			}
		}
		JOINT Spine
		{
			OFFSET 6.901967 -2.603726 -0.000001
			CHANNELS 3 Zrotation Yrotation Xrotation
			JOINT Spine1
			{
				OFFSET 12.588100 -0.000009 -0.000003
				CHANNELS 3 Zrotation Yrotation Xrotation
				JOINT Spine2
				{
					OFFSET 12.343202 0.000008 0.000008
					CHANNELS 3 Zrotation Yrotation Xrotation
					JOINT Neck
					{
						OFFSET 25.832897 -0.000015 -0.000004
						CHANNELS 3 Zrotation Yrotation Xrotation
						JOINT Head
						{
							OFFSET 11.766609 0.000013 -0.000006
							CHANNELS 3 Zrotation Yrotation Xrotation
							End Site
							{
								OFFSET 0.000000 0.000000 0.000000
							}
						}
					}
					JOINT LeftShoulder
					{
						OFFSET 19.745911 -1.480373 6.000098
						CHANNELS 3 Zrotation Yrotation Xrotation
						JOINT LeftArm
						{
							OFFSET 11.284123 -0.000007 -0.000032
							CHANNELS 3 Zrotation Yrotation Xrotation
							JOINT LeftForeArm
							{
								OFFSET 33.000050 0.000005 0.000031
								CHANNELS 3 Zrotation Yrotation Xrotation
								JOINT LeftHand
								{
									OFFSET 25.200008 0.000017 0.000013
									CHANNELS 3 Zrotation Yrotation Xrotation
									End Site
									{
										OFFSET 0.000000 0.000000 0.000000
									}
								}
							}
						}
					}
					JOINT RightShoulder
					{
						OFFSET 19.746092 -1.480379 -6.000077
						CHANNELS 3 Zrotation Yrotation Xrotation
						JOINT RightArm
						{
							OFFSET 11.284136 -0.000017 -0.000017
							CHANNELS 3 Zrotation Yrotation Xrotation
							JOINT RightForeArm
							{
								OFFSET 33.000099 0.000019 0.000015
								CHANNELS 3 Zrotation Yrotation Xrotation
								JOINT RightHand
								{
									OFFSET 25.199780 0.000140 0.000408
									CHANNELS 3 Zrotation Yrotation Xrotation
									End Site
									{
										OFFSET 0.000000 0.000000 0.000000
									}
								}
							}
						}
					}
				}
			}
		}
	}
}
MOTION
Frames: 14
Frame Time: 0.033333
169.225682 0.000000 -113.837350 0.000000 -47.507768 0.000000 -4.369515 86.094910 -3.285174 87.638582 -5.850458 175.363675 -168.158807 0.492291 162.638333 -15.290606 -4.499836 -7.156957 87.793886 2.791399 -13.787782 21.454555 0.003112 0.000018 141.540945 -0.041200 -162.125523 -29.372371 0.887961 16.074090 73.984315 -10.744992 2.524310 21.454551 -0.003099 -0.000001 8.800657 -0.590238 -1.518884 7.603318 -1.079537 -3.073299 7.285654 -1.098204 -3.066733 -2.467683 -7.001432 -7.001214 -22.577568 3.193364 -9.984282 178.544492 -75.396559 0.045578 -18.840628 53.299340 29.207289 -34.223988 -17.201613 1.486418 7.402174 -2.581374 5.297798 175.203860 80.216986 -3.302083 -8.468448 -47.206637 -36.381829 -30.023927 11.151601 -0.981743 10.339072 6.608714 -11.216841 
170.669129 0.000000 -112.354699 0.000000 -51.390347 0.000000 -4.133318 85.392403 -3.359814 87.640738 -6.280963 176.593562 -166.895058 2.118609 162.943916 -16.851369 -4.040208 -8.302424 87.372265 3.296837 -15.259500 21.454557 0.003109 0.000018 142.457816 -0.670815 -161.191645 -29.889451 0.189659 17.879193 76.044089 -12.679423 -0.216701 21.454550 -0.003081 0.000003 8.746972 -0.493317 -1.676647 7.494295 -0.877183 -3.381723 7.176768 -0.897706 -3.376384 -1.357377 -6.912682 -6.996471 -22.609330 2.744689 -9.719788 179.170096 -75.150898 -0.589436 -19.520938 54.799694 26.719714 -36.947386 -18.284903 1.621002 7.691320 -3.219914 6.951742 178.709646 80.368589 0.258708 -6.450524 -44.776948 -40.360797 -29.974080 10.939819 -0.967023 9.281411 4.778145 -12.842839 
172.052954 0.000000 -110.649133 0.000000 -55.301401 0.000000 -3.890084 84.955688 -3.201706 87.510659 -6.216039 178.631292 -167.397514 1.809495 160.501359 -22.113620 -3.040014 -6.962614 85.497685 1.676988 -17.490009 21.454563 0.003113 0.000017 143.504679 -0.797903 -158.375708 -31.695407 -0.524462 17.495721 77.808893 -13.062632 -3.303919 21.454553 -0.003090 0.000002 8.626085 -0.275496 -1.733577 7.246130 -0.442098 -3.480960 6.928666 -0.463245 -3.478233 -0.576879 -7.029409 -7.594517 -21.626583 3.473081 -10.576965 179.429684 -74.861783 -0.849767 -19.266236 56.377392 24.647486 -40.293205 -19.335854 1.776193 6.214422 -3.033415 8.898661 -177.453150 80.029395 4.148414 -3.664215 -43.306326 -41.723887 -29.218863 10.456781 -0.921467 9.019068 3.389041 -15.239790 
173.350432 0.000000 -108.739823 0.000000 -59.243725 0.000000 -3.554782 84.530869 -3.018606 87.786913 -5.733339 -179.454312 -168.759576 0.227598 159.144378 -29.951640 -2.683182 -6.118965 81.576829 0.486654 -17.402700 21.454563 0.003109 0.000017 144.875976 -1.258007 -156.718895 -33.397139 -0.209217 16.399364 79.085784 -13.958671 -10.783991 21.454553 -0.003102 -0.000002 8.579466 -0.008455 -1.529875 7.145094 0.077352 -3.057331 6.827491 0.058762 -3.057747 0.380210 -6.088798 -8.691582 -21.163114 3.822171 -11.614714 178.879390 -74.647916 -0.282573 -18.085598 57.851108 22.948070 -44.922779 -20.367616 1.977127 5.948896 -1.661341 13.042601 -171.858187 79.408585 9.827590 -1.349977 -42.822506 -42.585495 -27.523618 10.327170 -0.882905 9.646102 2.443290 -16.149709 
174.539066 0.000000 -106.627210 0.000000 -63.231505 0.000000 -3.311241 84.332207 -2.749420 88.330229 -4.735110 -177.988037 -171.650358 -2.475493 157.355469 -40.695288 -1.196586 -5.309378 75.387742 -1.064750 -17.236256 21.454558 0.003110 0.000017 146.708857 -2.539599 -156.755669 -35.414032 0.439855 15.616737 81.623445 -13.423940 -12.199260 21.454551 -0.003097 -0.000002 8.573004 0.312303 -1.260203 7.125647 0.701452 -2.498872 6.807854 0.686221 -2.503062 1.483438 -5.470646 -9.459091 -20.619943 4.933945 -12.676844 -178.172287 -74.796118 -3.302935 -16.784848 59.213171 21.944515 -49.046612 -20.510331 2.116859 4.985034 -1.500230 15.684262 -172.093323 78.786601 9.585607 0.592428 -43.009790 -42.333191 -25.725904 9.833456 -0.821125 10.886049 2.084072 -17.877815 
175.613963 0.000000 -104.320080 0.000000 -67.263985 0.000000 -2.951702 84.371094 -2.630310 88.894332 -3.969970 -177.302284 -176.105144 -5.369296 158.102910 -53.566107 -0.658355 -5.386913 69.483473 -0.963419 -14.257170 21.454560 0.003111 0.000012 148.956262 -4.132296 -157.731198 -37.009008 0.824500 14.641163 83.971637 -12.445408 -12.175047 21.454550 -0.003100 -0.000003 8.550307 0.570481 -0.893181 7.079037 1.194401 -1.749965 6.761027 1.183693 -1.757150 2.293623 -5.525489 -9.985042 -19.807337 6.106352 -13.607443 -176.037799 -74.595925 -5.485786 -14.395049 59.950729 22.115616 -52.535851 -20.409457 2.228020 3.452211 -1.999770 16.913083 -174.143364 78.481421 7.497199 1.434182 -43.662268 -40.781642 -24.885649 9.224561 -0.768394 11.707593 0.192131 -24.971930 
176.568369 0.000000 -101.831043 0.000000 -71.307891 0.000000 -2.653585 84.606361 -2.617734 89.571594 -3.557289 -176.933305 178.502691 -7.029600 160.212278 -65.401315 1.195432 -4.410041 65.429954 -0.599848 -9.795448 21.454550 0.003103 0.000016 151.959620 -5.606507 -158.912752 -37.542644 1.035886 13.400005 85.930576 -11.352930 -12.203687 21.454551 -0.003092 -0.000001 8.604438 0.742330 -0.574334 7.189350 1.518858 -1.101632 6.871201 1.512040 -1.110788 2.667846 -6.186093 -10.332817 -19.517281 6.843743 -14.319489 -174.250174 -74.158588 -7.312938 -12.374112 59.741547 23.072866 -54.808307 -20.289941 2.300266 2.681594 -3.539141 17.068134 -175.415678 78.989246 6.207088 -0.328231 -45.494066 -39.763165 -24.012597 9.286393 -0.759476 11.474484 -2.175982 -37.820205 
177.379575 0.000000 -99.183885 0.000000 -75.315636 0.000000 -2.580202 84.933884 -2.542440 90.288996 -3.038786 -177.127818 172.908629 -8.126206 164.569488 -74.841176 1.398863 -2.618624 69.958937 -0.711172 -7.375432 21.454560 0.003112 0.000010 155.596941 -7.393997 -159.612983 -36.832109 0.815702 11.558314 87.359950 -9.986587 -12.558209 21.454553 -0.003100 0.000001 8.726801 0.835893 -0.258733 7.438141 1.686701 -0.463363 7.119902 1.683721 -0.473544 2.717914 -6.335572 -10.401063 -19.361809 6.785915 -14.375188 -172.445392 -73.670803 -9.160055 -11.288122 58.904255 23.680039 -55.105819 -20.307262 2.312154 1.666291 -5.871884 16.714960 -176.624744 78.632648 4.972989 -4.657766 -46.741242 -38.541016 -23.515009 9.435706 -0.762078 9.585798 -2.792345 -46.246842 
178.045958 0.000000 -96.409185 0.000000 -79.253770 0.000000 -2.508951 85.662216 -2.469160 90.632548 -3.066281 -178.187412 167.330660 -8.369601 167.846653 -81.048275 2.134565 -2.959679 71.873241 0.266634 -5.413961 21.454550 0.003101 0.000024 159.826809 -8.903509 -161.748879 -34.492008 0.751387 9.675134 87.790826 -8.741590 -12.979832 21.454551 -0.003081 0.000001 8.744069 0.735757 0.050249 7.476841 1.466789 0.147833 7.158636 1.467508 0.138964 3.035278 -7.020947 -10.153981 -19.420758 6.916460 -14.266709 -171.018798 -73.446076 -10.622631 -10.180456 58.185220 24.308575 -53.163016 -20.359293 2.246525 1.049642 -7.208577 16.446573 179.689300 78.424027 1.218577 -9.529626 -48.506648 -36.171282 -23.919413 9.856149 -0.795238 8.661529 -1.432809 -45.282795 
178.564730 0.000000 -93.527930 0.000000 -83.082486 0.000000 -2.549557 86.484222 -2.468607 90.521270 -3.289131 -179.817274 161.784533 -8.141911 171.533507 -84.209512 2.111150 -4.985128 71.830716 1.912965 -4.880044 21.454563 0.003112 0.000020 164.010915 -9.941197 -165.440774 -31.426776 1.183568 8.108654 87.545970 -7.803849 -13.361443 21.454551 -0.003085 0.000000 8.643730 0.563903 0.374159 7.278725 1.103241 0.782982 6.960589 1.107824 0.776292 3.353160 -8.157715 -9.566525 -19.669975 6.805256 -13.792056 -170.604492 -73.217094 -11.047304 -9.314347 57.325259 25.718439 -49.272240 -20.728443 2.138926 0.521760 -7.101568 16.926261 176.477649 78.902837 -2.039108 -15.554863 -51.145119 -31.741491 -24.626694 9.938172 -0.810999 6.124404 2.331277 -39.970284 
178.933060 0.000000 -90.555130 0.000000 -86.759101 0.000000 -2.572002 87.123680 -2.575259 90.421420 -3.445379 178.007327 156.854789 -7.982888 173.411126 -84.926087 3.034394 -7.689869 72.179896 3.997056 -4.457755 21.454563 0.003110 0.000014 168.083565 -10.489895 -169.149211 -28.790108 1.420061 6.295234 87.193075 -6.694581 -13.616823 21.454553 -0.003090 0.000001 8.567554 0.394734 0.704289 7.127071 0.745478 1.431508 6.809052 0.753977 1.426977 3.243655 -8.941112 -8.349238 -19.706896 6.038897 -12.361492 -169.306593 -72.942063 -12.379437 -8.853958 56.156002 27.697629 -44.665120 -20.388909 1.970746 0.772088 -7.161467 17.405984 172.501031 79.164604 -6.074601 -21.915430 -52.932928 -27.666327 -27.651659 10.728691 -0.911220 5.113710 2.843417 -34.166061 
179.149675 0.000000 -87.514002 0.000000 269.734549 0.000000 -2.614693 87.701859 -2.828850 90.125747 -4.027688 175.538911 152.444850 -7.435384 175.079455 -83.284219 3.088292 -8.878133 73.657300 5.302581 -3.149389 21.454560 0.003112 0.000015 171.684250 -9.880205 -172.243710 -26.671609 1.506462 4.076073 86.917306 -5.297603 -13.821734 21.454555 -0.003095 -0.000002 8.523086 0.182673 0.985297 7.036008 0.305305 1.979861 6.718112 0.317126 1.977968 1.508969 -9.462233 -6.552991 -18.626491 4.872457 -10.185602 -166.953510 -72.705096 -14.796732 -9.103469 55.091063 30.449936 -39.562092 -19.425186 1.762317 0.593217 -7.293728 16.854848 167.172049 79.430237 -11.478177 -28.933696 -53.556497 -24.714240 -31.919561 11.573178 -1.046489 4.755079 3.326576 -28.811463 
179.221131 0.000000 -84.416716 0.000000 266.416139 0.000000 -2.659167 88.027672 -3.292792 89.943683 -4.488950 172.906166 148.775126 -6.969298 175.649093 -79.638530 3.171018 -9.503275 74.417015 6.045575 -2.218925 21.454557 0.003113 0.000018 174.713001 -8.697205 -175.894611 -25.624974 1.985685 2.358657 87.075377 -4.153374 -13.836063 21.454557 -0.003091 0.000001 8.593070 0.083563 1.290777 7.174286 0.087206 2.584195 6.856551 0.102663 2.583619 -0.792631 -10.349239 -4.541345 -17.391519 3.944436 -8.038400 -166.081896 -72.218315 -15.694590 -9.346268 54.306820 32.876866 -35.142795 -18.204028 1.572216 0.482043 -6.393460 16.594571 160.988228 80.124942 -17.721814 -35.893211 -53.416990 -21.383181 -37.052509 12.675011 -1.232158 2.484796 4.264483 -28.912594 
179.145930 0.000000 -81.270489 0.000000 263.287365 0.000000 -2.730773 88.348686 -3.717044 89.852539 -5.188491 170.581764 145.843267 -6.203287 176.548724 -73.960615 1.844488 -9.259841 74.476711 5.928416 -2.219941 21.454557 0.003104 0.000020 177.591803 -6.954601 179.833021 -24.452625 2.695703 1.388433 87.126125 -3.503797 -13.724288 21.454553 -0.003098 0.000000 8.726663 -0.024654 1.492680 7.438634 -0.144940 2.980660 7.120988 -0.127091 2.981486 -2.206439 -10.882846 -2.362181 -16.992713 3.502906 -5.854358 -165.520714 -72.168530 -16.271809 -8.955139 54.684520 33.809109 -31.894702 -16.939906 1.418601 0.582175 -4.990773 19.001144 151.972187 80.530246 -26.829285 -41.891230 -52.713549 -17.848551 -42.575714 13.882573 -1.453928 0.197483 5.730793 -32.183424 
